<svg data-v-423bf9ae="" xmlns="http://www.w3.org/2000/svg" viewBox="0 0 347 90" class="iconLeft"><!----><!----><!----><g data-v-423bf9ae="" id="830a5293-a8c2-4289-9dc1-72f2bfd10c13" fill="#000000" transform="matrix(4.276550040165796,0,0,4.276550040165796,105.3813193409045,2.127583227792421)"><path d="M6.50 8.15L6.50 8.15Q8.36 8.75 8.36 10.72L8.36 10.72L8.36 10.72Q8.36 12.04 7.50 12.78L7.50 12.78L7.50 12.78Q6.65 13.51 5.17 13.51L5.17 13.51L1.08 13.51L1.08 3.71L4.77 3.71L4.77 3.71Q7.57 3.71 7.57 6.08L7.57 6.08L7.57 6.08Q7.57 7.53 6.50 8.15L6.50 8.15ZM2.87 5.31L2.87 7.56L4.51 7.56L4.51 7.56Q5.17 7.56 5.49 7.29L5.49 7.29L5.49 7.29Q5.81 7.01 5.81 6.44L5.81 6.44L5.81 6.44Q5.81 5.84 5.49 5.57L5.49 5.57L5.49 5.57Q5.17 5.31 4.51 5.31L4.51 5.31L2.87 5.31ZM4.90 11.91L4.90 11.91Q5.68 11.91 6.10 11.60L6.10 11.60L6.10 11.60Q6.51 11.28 6.51 10.53L6.51 10.53L6.51 10.53Q6.51 9.79 6.08 9.47L6.08 9.47L6.08 9.47Q5.66 9.16 4.90 9.16L4.90 9.16L2.87 9.16L2.87 11.91L4.90 11.91ZM11.37 13.65L11.37 13.65Q10.47 13.65 10.02 13.14L10.02 13.14L10.02 13.14Q9.58 12.63 9.58 11.82L9.58 11.82L9.58 3.01L11.31 3.01L11.31 11.10L11.31 11.10Q11.31 11.66 11.38 11.89L11.38 11.89L11.38 11.89Q11.44 12.12 11.60 12.17L11.60 12.17L11.60 12.17Q11.76 12.22 12.15 12.22L12.15 12.22L12.00 13.65L11.37 13.65ZM16.44 13.65L16.44 13.65Q15.33 13.65 14.52 13.16L14.52 13.16L14.52 13.16Q13.71 12.67 13.27 11.84L13.27 11.84L13.27 11.84Q12.84 11.02 12.84 10.02L12.84 10.02L12.84 10.02Q12.84 9.03 13.27 8.19L13.27 8.19L13.27 8.19Q13.71 7.35 14.52 6.86L14.52 6.86L14.52 6.86Q15.33 6.37 16.44 6.37L16.44 6.37L16.44 6.37Q17.54 6.37 18.35 6.86L18.35 6.86L18.35 6.86Q19.17 7.35 19.60 8.19L19.60 8.19L19.60 8.19Q20.03 9.03 20.03 10.02L20.03 10.02L20.03 10.02Q20.03 11.02 19.60 11.84L19.60 11.84L19.60 11.84Q19.17 12.67 18.35 13.16L18.35 13.16L18.35 13.16Q17.54 13.65 16.44 13.65L16.44 13.65ZM16.44 12.22L16.44 12.22Q17.29 12.22 17.77 11.62L17.77 11.62L17.77 11.62Q18.26 11.02 18.26 10.02L18.26 10.02L18.26 10.02Q18.26 9.02 17.77 8.41L17.77 8.41L17.77 8.41Q17.29 7.80 16.44 7.80L16.44 7.80L16.44 7.80Q15.58 7.80 15.10 8.41L15.10 8.41L15.10 8.41Q14.62 9.02 14.62 10.02L14.62 10.02L14.62 10.02Q14.62 11.02 15.10 11.62L15.10 11.62L15.10 11.62Q15.58 12.22 16.44 12.22L16.44 12.22ZM24.01 17.04L24.01 17.04Q22.53 17.04 21.64 16.50L21.64 16.50L21.64 16.50Q20.76 15.96 20.76 15.04L20.76 15.04L20.76 15.04Q20.76 14.03 21.90 13.38L21.90 13.38L21.90 13.38Q21.28 13.01 21.28 12.39L21.28 12.39L21.28 12.39Q21.28 12.07 21.47 11.82L21.47 11.82L21.47 11.82Q21.66 11.56 21.98 11.41L21.98 11.41L21.98 11.41Q21.45 11.03 21.18 10.44L21.18 10.44L21.18 10.44Q20.90 9.86 20.90 9.16L20.90 9.16L20.90 9.16Q20.90 8.39 21.24 7.75L21.24 7.75L21.24 7.75Q21.57 7.11 22.22 6.74L22.22 6.74L22.22 6.74Q22.86 6.37 23.74 6.37L23.74 6.37L23.74 6.37Q24.67 6.37 25.34 6.82L25.34 6.82L25.34 6.82Q25.58 6.69 25.98 6.60L25.98 6.60L25.98 6.60Q26.38 6.51 26.84 6.51L26.84 6.51L27.29 6.51L27.17 7.60L26.54 7.60L26.54 7.60Q26.31 7.60 26.15 7.62L26.15 7.62L26.15 7.62Q26.57 8.26 26.57 9.16L26.57 9.16L26.57 9.16Q26.57 9.93 26.24 10.56L26.24 10.56L26.24 10.56Q25.91 11.20 25.27 11.57L25.27 11.57L25.27 11.57Q24.63 11.94 23.74 11.94L23.74 11.94L23.74 11.94Q23.42 11.94 23.00 11.84L23.00 11.84L23.00 11.84Q22.85 11.91 22.85 12.07L22.85 12.07L22.85 12.07Q22.85 12.25 23.07 12.36L23.07 12.36L23.07 12.36Q23.28 12.46 23.80 12.53L23.80 12.53L25.00 12.68L25.00 12.68Q27.41 13.01 27.41 14.71L27.41 14.71L27.41 14.71Q27.41 15.78 26.51 16.41L26.51 16.41L26.51 16.41Q25.61 17.04 24.01 17.04L24.01 17.04ZM23.74 10.65L23.74 10.65Q24.35 10.65 24.68 10.25L24.68 10.25L24.68 10.25Q25.00 9.86 25.00 9.16L25.00 9.16L25.00 9.16Q25.00 8.46 24.68 8.06L24.68 8.06L24.68 8.06Q24.35 7.66 23.74 7.66L23.74 7.66L23.74 7.66Q23.13 7.66 22.80 8.06L22.80 8.06L22.80 8.06Q22.47 8.46 22.47 9.16L22.47 9.16L22.47 9.16Q22.47 9.86 22.80 10.25L22.80 10.25L22.80 10.25Q23.13 10.65 23.74 10.65L23.74 10.65ZM24.08 15.72L24.08 15.72Q25.87 15.72 25.87 14.84L25.87 14.84L25.87 14.84Q25.87 14.45 25.56 14.26L25.56 14.26L25.56 14.26Q25.26 14.07 24.54 13.96L24.54 13.96L23.00 13.73L23.00 13.73Q22.20 14.06 22.20 14.71L22.20 14.71L22.20 14.71Q22.20 15.22 22.69 15.47L22.69 15.47L22.69 15.47Q23.18 15.72 24.08 15.72L24.08 15.72ZM41.64 13.51L39.77 13.51L38.93 6.94L36.43 11.45L33.91 6.96L33.07 13.51L31.21 13.51L32.56 3.71L34.03 3.71L36.43 8.18L38.81 3.71L40.28 3.71L41.64 13.51ZM44.58 13.65L44.58 13.65Q43.71 13.65 43.13 13.08L43.13 13.08L43.13 13.08Q42.55 12.52 42.55 11.55L42.55 11.55L42.55 11.55Q42.55 10.64 43.20 10.09L43.20 10.09L43.20 10.09Q43.86 9.53 44.76 9.30L44.76 9.30L44.76 9.30Q45.65 9.07 46.48 9.04L46.48 9.04L46.48 9.04Q46.45 8.43 46.17 8.16L46.17 8.16L46.17 8.16Q45.88 7.90 45.22 7.90L45.22 7.90L45.22 7.90Q44.76 7.90 44.32 8.02L44.32 8.02L44.32 8.02Q43.88 8.15 43.30 8.43L43.30 8.43L43.15 7.01L43.15 7.01Q44.42 6.40 45.70 6.40L45.70 6.40L45.70 6.40Q46.93 6.40 47.58 7.07L47.58 7.07L47.58 7.07Q48.23 7.74 48.23 9.21L48.23 9.21L48.23 11.10L48.23 11.10Q48.23 11.63 48.28 11.87L48.28 11.87L48.28 11.87Q48.33 12.10 48.45 12.16L48.45 12.16L48.45 12.16Q48.57 12.22 48.85 12.22L48.85 12.22L49.07 12.22L48.92 13.65L48.29 13.65L48.29 13.65Q47.71 13.65 47.32 13.43L47.32 13.43L47.32 13.43Q46.93 13.22 46.72 12.84L46.72 12.84L46.72 12.84Q46.38 13.22 45.80 13.43L45.80 13.43L45.80 13.43Q45.22 13.65 44.58 13.65L44.58 13.65ZM45.30 12.32L45.30 12.32Q45.57 12.32 45.91 12.19L45.91 12.19L45.91 12.19Q46.24 12.05 46.49 11.82L46.49 11.82L46.49 10.22L46.49 10.22Q45.65 10.26 45.01 10.58L45.01 10.58L45.01 10.58Q44.37 10.91 44.37 11.48L44.37 11.48L44.37 11.48Q44.37 11.91 44.59 12.12L44.59 12.12L44.59 12.12Q44.81 12.32 45.30 12.32L45.30 12.32ZM51.83 13.65L51.83 13.65Q50.93 13.65 50.48 13.14L50.48 13.14L50.48 13.14Q50.04 12.63 50.04 11.82L50.04 11.82L50.04 3.01L51.77 3.01L51.77 11.10L51.77 11.10Q51.77 11.66 51.84 11.89L51.84 11.89L51.84 11.89Q51.90 12.12 52.06 12.17L52.06 12.17L52.06 12.17Q52.22 12.22 52.61 12.22L52.61 12.22L52.46 13.65L51.83 13.65ZM55.51 13.65L55.51 13.65Q54.61 13.65 54.17 13.14L54.17 13.14L54.17 13.14Q53.72 12.63 53.72 11.82L53.72 11.82L53.72 3.01L55.45 3.01L55.45 11.10L55.45 11.10Q55.45 11.66 55.52 11.89L55.52 11.89L55.52 11.89Q55.58 12.12 55.74 12.17L55.74 12.17L55.74 12.17Q55.90 12.22 56.29 12.22L56.29 12.22L56.14 13.65L55.51 13.65Z"></path></g><defs data-v-423bf9ae=""><linearGradient data-v-423bf9ae="" gradientTransform="rotate(25)" id="f7c887db-bc08-4cbb-9ced-ecd0b5a31e1d" x1="0%" y1="0%" x2="100%" y2="0%"><stop data-v-423bf9ae="" offset="0%" style="stop-color: rgb(105, 63, 36); stop-opacity: 1;"></stop><stop data-v-423bf9ae="" offset="100%" style="stop-color: rgb(156, 146, 137); stop-opacity: 1;"></stop></linearGradient></defs><g data-v-423bf9ae="" id="8cb4f81b-cd37-4681-9a60-79efed3b464f" transform="matrix(2.8125,0,0,2.8125,0,0)" stroke="none" fill="url(#f7c887db-bc08-4cbb-9ced-ecd0b5a31e1d)"><path d="M0 32h32V0H0v32zM2.038 2.038h27.923v27.923H2.038V2.038z"></path><path d="M4.038 27.962h23.923V4.038H4.038v23.924zM21.049 8.25h3.402v3.402h-3.402V8.25zm0 6.049h3.402v3.402h-3.402v-3.402zm0 6.049h3.402v3.402h-3.402v-3.402zM14.299 8.25h3.402v3.402h-3.402V8.25zm0 6.049h3.402v3.402h-3.402v-3.402zm0 6.049h3.402v3.402h-3.402v-3.402zM7.549 8.25h3.402v3.402H7.549V8.25zm0 6.049h3.402v3.402H7.549v-3.402zm0 6.049h3.402v3.402H7.549v-3.402z"></path></g><!----></svg>